<svg xmlns="http://www.w3.org/2000/svg" viewBox="0 0 24 30" fill="none" x="0px" y="0px"><path fill-rule="evenodd" clip-rule="evenodd" d="M12 3.5C7.30558 3.5 3.5 7.30558 3.5 12C3.5 16.6944 7.30558 20.5 12 20.5C16.6944 20.5 20.5 16.6944 20.5 12C20.5 7.30558 16.6944 3.5 12 3.5ZM2.5 12C2.5 6.7533 6.75329 2.5 12 2.5C17.2467 2.5 21.5 6.7533 21.5 12C21.5 17.2467 17.2467 21.5 12 21.5C6.75329 21.5 2.5 17.2467 2.5 12Z" fill="black"/><path fill-rule="evenodd" clip-rule="evenodd" d="M10.5764 16.1C9.64303 16.1 8.73909 16.4264 8.02103 17.0226L6.01942 18.6847L5.38058 17.9153L7.3822 16.2533C8.27977 15.508 9.4097 15.1 10.5764 15.1H13.4236C14.5903 15.1 15.7202 15.508 16.6178 16.2533L18.6194 17.9153L17.9806 18.6847L15.979 17.0226C15.2609 16.4264 14.357 16.1 13.4236 16.1H10.5764Z" fill="black"/><path fill-rule="evenodd" clip-rule="evenodd" d="M12 7.1C10.2879 7.1 8.90001 8.48792 8.90001 10.2C8.90001 11.9121 10.2879 13.3 12 13.3C13.7121 13.3 15.1 11.9121 15.1 10.2C15.1 8.48792 13.7121 7.1 12 7.1ZM7.90001 10.2C7.90001 7.93563 9.73564 6.1 12 6.1C14.2644 6.1 16.1 7.93563 16.1 10.2C16.1 12.4644 14.2644 14.3 12 14.3C9.73564 14.3 7.90001 12.4644 7.90001 10.2Z" fill="black"/><text x="0" y="39" fill="#000000" font-size="5px" font-weight="bold" font-family="'Helvetica Neue', Helvetica, Arial-Unicode, Arial, Sans-serif">Created by Henning Gross</text><text x="0" y="44" fill="#000000" font-size="5px" font-weight="bold" font-family="'Helvetica Neue', Helvetica, Arial-Unicode, Arial, Sans-serif">from the Noun Project</text></svg>