<svg xmlns="http://www.w3.org/2000/svg" viewBox="0 0 24 30" fill="none" x="0px" y="0px"><path fill-rule="evenodd" clip-rule="evenodd" d="M12 2.5C6.75329 2.5 2.5 6.75329 2.5 12C2.5 17.2467 6.75329 21.5 12 21.5C17.2467 21.5 21.5 17.2467 21.5 12C21.5 6.75329 17.2467 2.5 12 2.5ZM1.5 12C1.5 6.20101 6.20101 1.5 12 1.5C17.799 1.5 22.5 6.20101 22.5 12C22.5 17.799 17.799 22.5 12 22.5C6.20101 22.5 1.5 17.799 1.5 12ZM12 7.5C11.1716 7.5 10.5 8.17157 10.5 9C10.5 9.82843 11.1716 10.5 12 10.5C12.8284 10.5 13.5 9.82843 13.5 9C13.5 8.17157 12.8284 7.5 12 7.5ZM9.5 9C9.5 7.61929 10.6193 6.5 12 6.5C13.3807 6.5 14.5 7.61929 14.5 9C14.5 10.3807 13.3807 11.5 12 11.5C10.6193 11.5 9.5 10.3807 9.5 9ZM7.49996 9.5C6.94767 9.5 6.49996 9.94772 6.49996 10.5C6.49996 11.0523 6.94767 11.5 7.49996 11.5C8.05224 11.5 8.49996 11.0523 8.49996 10.5C8.49996 9.94772 8.05224 9.5 7.49996 9.5ZM5.49996 10.5C5.49996 9.39543 6.39539 8.5 7.49996 8.5C8.60452 8.5 9.49996 9.39543 9.49996 10.5C9.49996 11.6046 8.60452 12.5 7.49996 12.5C6.39539 12.5 5.49996 11.6046 5.49996 10.5ZM14.5 10.5C14.5 9.39543 15.3954 8.5 16.5 8.5C17.6046 8.5 18.5 9.39543 18.5 10.5C18.5 11.6046 17.6046 12.5 16.5 12.5C15.3954 12.5 14.5 11.6046 14.5 10.5ZM16.5 9.5C15.9477 9.5 15.5 9.94772 15.5 10.5C15.5 11.0523 15.9477 11.5 16.5 11.5C17.0523 11.5 17.5 11.0523 17.5 10.5C17.5 9.94771 17.0523 9.5 16.5 9.5ZM8.55441 13.3681C9.27332 12.2553 10.6509 12 11.7401 12H12.2599C13.3491 12 14.7267 12.2553 15.4456 13.3681C15.4844 13.4282 15.5212 13.4906 15.5548 13.5551C15.664 13.7652 15.7383 14.0311 15.7918 14.2785C15.8473 14.5345 15.8884 14.8091 15.9186 15.0569C15.9489 15.3059 15.969 15.5345 15.9816 15.7006C15.9879 15.7838 15.9923 15.8518 15.9952 15.8994L15.9983 15.9548L15.9991 15.9699L15.9993 15.9741L15.9994 15.9754C15.9994 15.9754 15.9994 15.976 15.5 16L15.9994 15.9754C16.006 16.112 15.9563 16.246 15.8619 16.345C15.7676 16.444 15.6368 16.5 15.5 16.5H8.5C8.36323 16.5 8.23242 16.444 8.13806 16.345C8.0437 16.246 7.99401 16.1126 8.00058 15.976L8.5 16C8.00058 15.976 8.00057 15.9761 8.00058 15.976L8.00067 15.9741L8.00088 15.9699L8.00167 15.9548L8.00485 15.8994C8.00771 15.8518 8.01213 15.7838 8.01841 15.7006C8.03095 15.5345 8.05107 15.3059 8.0814 15.0569C8.11159 14.8091 8.15268 14.5345 8.20815 14.2785C8.26174 14.0311 8.33604 13.7652 8.44524 13.5551C8.47876 13.4906 8.51562 13.4282 8.55441 13.3681ZM9.03917 15.5H14.9608C14.9513 15.3999 14.9397 15.291 14.9259 15.1779C14.8978 14.947 14.8611 14.7054 14.8145 14.4902C14.766 14.2662 14.7139 14.1056 14.6675 14.0163C14.6503 13.9833 14.6297 13.948 14.6056 13.9107C14.1805 13.2526 13.2791 13 12.2599 13H11.7401C10.7209 13 9.81952 13.2526 9.39438 13.9107C9.37028 13.9481 9.34969 13.9833 9.33253 14.0163C9.28611 14.1056 9.23399 14.2662 9.18548 14.4902C9.13886 14.7054 9.10218 14.947 9.07406 15.1779C9.06028 15.291 9.04874 15.3999 9.03917 15.5ZM5.54262 15.5C5.59531 15.09 5.69149 14.7586 5.84817 14.5156C6.03694 14.2227 6.35064 14 6.99997 14C7.27611 14 7.49997 13.7761 7.49997 13.5C7.49997 13.2239 7.27611 13 6.99997 13C6.06375 13 5.40749 13.3535 5.00766 13.9738C4.63767 14.5478 4.53127 15.2868 4.50047 15.9777C4.49439 16.1141 4.5443 16.247 4.63863 16.3456C4.73296 16.4442 4.8635 16.5 4.99997 16.5H6.49997C6.77611 16.5 6.99997 16.2761 6.99997 16C6.99997 15.7239 6.77611 15.5 6.49997 15.5H5.54262ZM16.5 13.5C16.5 13.2239 16.7239 13 17 13C17.9362 13 18.5925 13.3535 18.9923 13.9738C19.3623 14.5478 19.4687 15.2868 19.4995 15.9777C19.5056 16.1141 19.4557 16.247 19.3613 16.3456C19.267 16.4442 19.1365 16.5 19 16.5H17.5C17.2239 16.5 17 16.2761 17 16C17 15.7239 17.2239 15.5 17.5 15.5H18.4574C18.4047 15.09 18.3085 14.7586 18.1518 14.5156C17.963 14.2227 17.6493 14 17 14C16.7239 14 16.5 13.7761 16.5 13.5Z" fill="black"/><text x="0" y="39" fill="#000000" font-size="5px" font-weight="bold" font-family="'Helvetica Neue', Helvetica, Arial-Unicode, Arial, Sans-serif">Created by Henning Gross</text><text x="0" y="44" fill="#000000" font-size="5px" font-weight="bold" font-family="'Helvetica Neue', Helvetica, Arial-Unicode, Arial, Sans-serif">from the Noun Project</text></svg>